<svg width="44" height="44" viewBox="0 0 44 44" fill="none" xmlns="http://www.w3.org/2000/svg">
<circle cx="22" cy="22" r="22" fill="#113A2D"/>
<path d="M10.4873 18.012C11.3086 18.012 11.9293 18.194 12.3493 18.558C12.7693 18.9127 12.9793 19.3793 12.9793 19.958C12.9793 20.2287 12.9326 20.4713 12.8393 20.686C12.746 20.8913 12.6246 21.0733 12.4753 21.232C12.3353 21.3813 12.1813 21.5073 12.0133 21.61C11.8453 21.7127 11.6913 21.7967 11.5513 21.862C12.1393 22.0393 12.592 22.352 12.9093 22.8C13.2266 23.2387 13.3853 23.7147 13.3853 24.228C13.3853 24.5827 13.3293 24.9327 13.2173 25.278C13.1146 25.614 12.9373 25.9173 12.6853 26.188C12.4333 26.4587 12.0973 26.678 11.6773 26.846C11.2666 27.0047 10.7533 27.084 10.1373 27.084C9.7173 27.084 9.2833 27.014 8.8353 26.874C8.3873 26.7247 7.94863 26.552 7.5193 26.356L7.9953 25.194C8.4153 25.3807 8.78863 25.5393 9.1153 25.67C9.44196 25.8007 9.76863 25.866 10.0953 25.866C10.31 25.866 10.5153 25.8333 10.7113 25.768C10.9166 25.7027 11.094 25.6047 11.2433 25.474C11.402 25.3433 11.528 25.1753 11.6213 24.97C11.7146 24.7647 11.7613 24.5267 11.7613 24.256C11.7613 23.8267 11.6353 23.4813 11.3833 23.22C11.1313 22.9493 10.8373 22.814 10.5013 22.814C10.3426 22.814 10.184 22.8233 10.0253 22.842C9.87596 22.8513 9.73596 22.87 9.6053 22.898C9.48396 22.9167 9.3813 22.9353 9.2973 22.954C9.2133 22.9727 9.16196 22.982 9.1433 22.982L8.7093 21.89C9.0453 21.778 9.3673 21.6707 9.6753 21.568C9.99263 21.456 10.2726 21.3393 10.5153 21.218C10.758 21.0873 10.9493 20.9333 11.0893 20.756C11.2386 20.5787 11.3133 20.364 11.3133 20.112C11.3133 19.8227 11.22 19.6033 11.0333 19.454C10.8466 19.3047 10.59 19.23 10.2633 19.23C10.086 19.23 9.92263 19.244 9.7733 19.272C9.62396 19.2907 9.46996 19.328 9.3113 19.384C9.16196 19.4307 8.99863 19.4867 8.8213 19.552C8.6533 19.6173 8.46196 19.692 8.2473 19.776L7.7013 18.698C7.93463 18.5953 8.15396 18.502 8.3593 18.418C8.57396 18.334 8.78863 18.264 9.0033 18.208C9.2273 18.1427 9.45596 18.096 9.6893 18.068C9.93196 18.0307 10.198 18.012 10.4873 18.012ZM18.0613 18.012C18.64 18.012 19.13 18.11 19.5313 18.306C19.942 18.502 20.278 18.7867 20.5393 19.16C20.8006 19.5333 20.9873 19.9953 21.0993 20.546C21.2206 21.0967 21.2813 21.722 21.2813 22.422C21.2813 23.122 21.216 23.7567 21.0853 24.326C20.964 24.8953 20.7633 25.3853 20.4833 25.796C20.2126 26.2067 19.8626 26.524 19.4333 26.748C19.004 26.972 18.486 27.084 17.8793 27.084C17.3006 27.084 16.806 26.986 16.3953 26.79C15.994 26.594 15.6626 26.3093 15.4013 25.936C15.14 25.5533 14.9486 25.0867 14.8273 24.536C14.7153 23.9853 14.6593 23.3553 14.6593 22.646C14.6593 21.946 14.72 21.3113 14.8413 20.742C14.972 20.1727 15.1726 19.6873 15.4433 19.286C15.7233 18.8753 16.078 18.5627 16.5073 18.348C16.9366 18.124 17.4546 18.012 18.0613 18.012ZM17.8793 19.23C17.59 19.23 17.3473 19.3093 17.1513 19.468C16.9646 19.6173 16.8153 19.8367 16.7033 20.126C16.5913 20.406 16.512 20.7467 16.4653 21.148C16.4186 21.5493 16.3953 21.9973 16.3953 22.492C16.3953 22.9587 16.414 23.3973 16.4513 23.808C16.498 24.2187 16.5773 24.578 16.6893 24.886C16.8106 25.1847 16.9786 25.4227 17.1933 25.6C17.408 25.7773 17.6926 25.866 18.0473 25.866C18.3366 25.866 18.5746 25.7867 18.7613 25.628C18.9573 25.4693 19.1113 25.25 19.2233 24.97C19.3353 24.6807 19.4146 24.3353 19.4613 23.934C19.508 23.5327 19.5313 23.0847 19.5313 22.59C19.5313 22.1233 19.5126 21.6893 19.4753 21.288C19.438 20.8773 19.3586 20.5227 19.2373 20.224C19.116 19.916 18.948 19.6733 18.7333 19.496C18.5186 19.3187 18.234 19.23 17.8793 19.23ZM25.95 18.012C26.5286 18.012 27.0186 18.11 27.42 18.306C27.8306 18.502 28.1666 18.7867 28.428 19.16C28.6893 19.5333 28.876 19.9953 28.988 20.546C29.1093 21.0967 29.17 21.722 29.17 22.422C29.17 23.122 29.1046 23.7567 28.974 24.326C28.8526 24.8953 28.652 25.3853 28.372 25.796C28.1013 26.2067 27.7513 26.524 27.322 26.748C26.8926 26.972 26.3746 27.084 25.768 27.084C25.1893 27.084 24.6946 26.986 24.284 26.79C23.8826 26.594 23.5513 26.3093 23.29 25.936C23.0286 25.5533 22.8373 25.0867 22.716 24.536C22.604 23.9853 22.548 23.3553 22.548 22.646C22.548 21.946 22.6086 21.3113 22.73 20.742C22.8606 20.1727 23.0613 19.6873 23.332 19.286C23.612 18.8753 23.9666 18.5627 24.396 18.348C24.8253 18.124 25.3433 18.012 25.95 18.012ZM25.768 19.23C25.4786 19.23 25.236 19.3093 25.04 19.468C24.8533 19.6173 24.704 19.8367 24.592 20.126C24.48 20.406 24.4006 20.7467 24.354 21.148C24.3073 21.5493 24.284 21.9973 24.284 22.492C24.284 22.9587 24.3026 23.3973 24.34 23.808C24.3866 24.2187 24.466 24.578 24.578 24.886C24.6993 25.1847 24.8673 25.4227 25.082 25.6C25.2966 25.7773 25.5813 25.866 25.936 25.866C26.2253 25.866 26.4633 25.7867 26.65 25.628C26.846 25.4693 27 25.25 27.112 24.97C27.224 24.6807 27.3033 24.3353 27.35 23.934C27.3966 23.5327 27.42 23.0847 27.42 22.59C27.42 22.1233 27.4013 21.6893 27.364 21.288C27.3266 20.8773 27.2473 20.5227 27.126 20.224C27.0046 19.916 26.8366 19.6733 26.622 19.496C26.4073 19.3187 26.1226 19.23 25.768 19.23ZM30.6466 22.156H32.7326V20.028H34.0486V22.156H36.1346V23.402H34.0486V25.614H32.7326V23.402H30.6466V22.156Z" fill="white"/>
</svg>
